<svg width="128" height="128" viewBox="0 0 128 128" fill="none" xmlns="http://www.w3.org/2000/svg">
  <defs>
    <linearGradient id="neon" x1="18" y1="18" x2="110" y2="110" gradientUnits="userSpaceOnUse">
      <stop stop-color="#22D3EE"/>
      <stop offset="0.5" stop-color="#60A5FA"/>
      <stop offset="1" stop-color="#A78BFA"/>
    </linearGradient>
    <linearGradient id="bg" x1="14" y1="18" x2="114" y2="112" gradientUnits="userSpaceOnUse">
      <stop stop-color="#0B1220"/>
      <stop offset="1" stop-color="#040610"/>
    </linearGradient>
    <linearGradient id="glass" x1="34" y1="30" x2="92" y2="98" gradientUnits="userSpaceOnUse">
      <stop stop-color="white" stop-opacity="0.16"/>
      <stop offset="1" stop-color="white" stop-opacity="0.04"/>
    </linearGradient>
  </defs>

  <rect x="10" y="10" width="108" height="108" rx="26" fill="url(#bg)"/>
  <rect x="10" y="10" width="108" height="108" rx="26" stroke="url(#neon)" stroke-width="4" opacity="0.95"/>

  <path d="M64 30 L96 52 V86 L64 102 L32 86 V52 L64 30 Z" fill="white" opacity="0.06" stroke="white" stroke-opacity="0.14"/>
  <path d="M64 34 L90 54 V84 L64 98 L38 84 V54 L64 34 Z" fill="url(#glass)"/>

  <!-- S inside prism -->
  <path d="M82 50
           C74 42 56 42 50 50
           C44 58 48 64 58 66
           L70 68
           C84 70 86 82 76 88
           C64 96 50 90 46 84"
        stroke="url(#neon)" stroke-width="8" stroke-linecap="round" stroke-linejoin="round"/>

  <path d="M44 92 L92 44" stroke="white" stroke-opacity="0.10" stroke-width="4" stroke-linecap="round"/>
</svg>